# xmcd CD database file
#
# Track frame offsets:
#	150
#	12187
#	50817
#	98170
#	126930
#	162627
#	209667
#	240257
#	275147
#
# Disc length: 4007 seconds
#
# Revision: 0
# Processed by: cddbd v1.5.1PL2 Copyright (c) Steve Scherf et al.
# Submitted via: CDex 1.50
#
DISCID=840fa509
DTITLE=Dusko Goykovich - Golden Earrings
DYEAR=1999
DGENRE=Jazz
TTITLE0=Introduction
TTITLE1=Sambalero
TTITLE2=What a Difference Day Made
TTITLE3=Golden Earrings
TTITLE4=The Ambasador
TTITLE5=Person-Ally Ake
TTITLE6=Lexington Affair
TTITLE7=The Blues Walk
TTITLE8=Misty
EXTD=YEAR: 1999
EXTT0=
EXTT1=
EXTT2=
EXTT3=
EXTT4=
EXTT5=
EXTT6=
EXTT7=
EXTT8=
PLAYORDER=
